<svg xmlns="http://www.w3.org/2000/svg" xmlns:xlink="http://www.w3.org/1999/xlink" xmlns:inkscape="http://www.inkscape.org/namespaces/inkscape" version="1.1" width="375" height="375" viewBox="0 0 375 375">
<defs>
<clipPath id="clip_0">
<path transform="matrix(.24,0,0,.24,0,0)" d="M0 0H1562.5V1562.5H0Z" clip-rule="evenodd"/>
</clipPath>
<clipPath id="clip_1">
<path transform="matrix(.24,0,0,.24,0,0)" d="M0 0H1562.5V1562.5H0Z" clip-rule="evenodd"/>
</clipPath>
<clipPath id="clip_2">
<path transform="matrix(.24,0,0,.24,0,0)" d="M0 0H1562.5V1562.5H0Z" clip-rule="evenodd"/>
</clipPath>
<clipPath id="clip_3">
<path transform="matrix(.24,0,0,.24,0,0)" d="M1023.83438 781.2941H1526.9594V1165.6692H1023.83438Z" clip-rule="evenodd"/>
</clipPath>
<clipPath id="clip_4">
<path transform="matrix(.24,0,0,.24,0,0)" d="M35.51233 396.06477H538.6373V780.43978H35.51233Z" clip-rule="evenodd"/>
</clipPath>
</defs>
<g clip-path="url(#clip_0)">
<path transform="matrix(.75,0,0,.75,0,0)" d="M0 0H500V500H0Z" fill="#ffffff"/>
</g>
<g clip-path="url(#clip_1)">
<path transform="matrix(.75,0,0,.75,0,0)" d="M0 0H500V500H0Z" fill="#070707"/>
</g>
<g clip-path="url(#clip_2)">
<text fill="#e8e5d6" xml:space="preserve" transform="matrix(.75 0 0 .75 87.0493 176.64873)" font-size="58.66" font-family="BricolageGrotesque" font-weight="bold"><tspan y="60" x=".359375 41.71199 67.57938 100.95476 138.26012 154.74251 188.00054 222.49042">Archives</tspan></text>
<text fill="#070707" xml:space="preserve" transform="matrix(.6020057 0 0 .6020057 88.01925 156.36649)" font-size="59.27" font-family="BricolageGrotesque" font-weight="bold"><tspan y="59" x="121.328128">.</tspan></text>
<text fill="#e8e5d6" xml:space="preserve" transform="matrix(.75 0 0 .75 85.50933 136.47249)" font-size="63.99" font-family="BricolageGrotesque" font-weight="bold"><tspan y="65" x="8.84375 53.504854 71.48447 110.00307 127.98268 153.76839 191.51918">Digital</tspan></text>
<text fill="#e8e5d6" xml:space="preserve" transform="matrix(.71439859 -.22833017 .22833017 .71439859 210.84038 136.1321)" font-size="18.66" font-family="OpenSauceOne" font-weight="bold"><tspan y="17" x="0">E</tspan></text>
<text fill="#e8e5d6" xml:space="preserve" transform="matrix(.71439859 -.22833017 .22833017 .71439859 210.84038 136.1321)" font-size="18.66" font-family="OpenSauceOne" font-weight="bold"><tspan y="17" x="11.59375"> </tspan></text>
<text fill="#e8e5d6" xml:space="preserve" transform="matrix(.74858549 -.04604142 .04604142 .74858549 221.19307 133.03218)" font-size="18.66" font-family="OpenSauceOne" font-weight="bold"><tspan y="17" x="0">S</tspan></text>
<text fill="#e8e5d6" xml:space="preserve" transform="matrix(.73675826 .14031117 -.14031117 .73675826 233.04563 132.62543)" font-size="18.66" font-family="OpenSauceOne" font-weight="bold"><tspan y="17" x="0">T</tspan></text>
<text fill="#e8e5d6" xml:space="preserve" transform="matrix(.73675826 .14031117 -.14031117 .73675826 233.04563 132.62543)" font-size="18.66" font-family="OpenSauceOne" font-weight="bold"><tspan y="17" x="11.765625"> </tspan></text>
<text fill="#e8e5d6" xml:space="preserve" transform="matrix(.7038275 .25908847 -.25908847 .7038275 242.98999 134.86016)" font-size="18.66" font-family="OpenSauceOne" font-weight="bold"><tspan y="17" x="0">.</tspan></text>
<text fill="#e8e5d6" xml:space="preserve" transform="matrix(.7038275 .25908847 -.25908847 .7038275 242.98999 134.86016)" font-size="18.66" font-family="OpenSauceOne" font-weight="bold"><tspan y="17" x="4.5625"> </tspan></text>
<text fill="#e8e5d6" xml:space="preserve" transform="matrix(.6756277 .32561819 -.32561819 .6756277 246.94535 136.34833)" font-size="18.66" font-family="OpenSauceOne" font-weight="bold"><tspan y="17" x="0"> </tspan></text>
<text fill="#e8e5d6" xml:space="preserve" transform="matrix(.60973766 .43671505 -.43671505 .60973766 251.6985 138.52568)" font-size="18.66" font-family="OpenSauceOne" font-weight="bold"><tspan y="17" x="0">2</tspan></text>
<text fill="#e8e5d6" xml:space="preserve" transform="matrix(.60973766 .43671505 -.43671505 .60973766 251.6985 138.52568)" font-size="18.66" font-family="OpenSauceOne" font-weight="bold"><tspan y="17" x="12.09375"> </tspan></text>
<text fill="#e8e5d6" xml:space="preserve" transform="matrix(.48382033 .5730775 -.5730775 .48382033 260.64506 145.234)" font-size="18.66" font-family="OpenSauceOne" font-weight="bold"><tspan y="17" x="0">0</tspan></text>
<text fill="#e8e5d6" xml:space="preserve" transform="matrix(.48382033 .5730775 -.5730775 .48382033 260.64506 145.234)" font-size="18.66" font-family="OpenSauceOne" font-weight="bold"><tspan y="17" x="12.5"> </tspan></text>
<text fill="#e8e5d6" xml:space="preserve" transform="matrix(.32827188 .67434236 -.67434236 .32827188 267.83763 154.18932)" font-size="18.66" font-family="OpenSauceOne" font-weight="bold"><tspan y="17" x="0">2</tspan></text>
<text fill="#e8e5d6" xml:space="preserve" transform="matrix(.32827188 .67434236 -.67434236 .32827188 267.83763 154.18932)" font-size="18.66" font-family="OpenSauceOne" font-weight="bold"><tspan y="17" x="12.09375"> </tspan></text>
<text fill="#e8e5d6" xml:space="preserve" transform="matrix(.15455333 .73390278 -.73390278 .15455333 272.4968 164.32759)" font-size="18.66" font-family="OpenSauceOne" font-weight="bold"><tspan y="17" x="0">5</tspan></text>
<text fill="#e8e5d6" xml:space="preserve" transform="matrix(.15455333 .73390278 -.73390278 .15455333 272.4968 164.32759)" font-size="18.66" font-family="OpenSauceOne" font-weight="bold"><tspan y="17" x="12.25"> </tspan></text>
<text fill="#e8e5d6" xml:space="preserve" transform="matrix(.02520753 .7495763 -.7495763 .02520753 274.3291 174.8049)" font-size="18.66" font-family="OpenSauceOne" font-weight="bold"><tspan y="17" x="0"> </tspan></text>
<text fill="#e8e5d6" xml:space="preserve" transform="matrix(.42489854 .6180301 -.6180301 .42489854 69.891239 205.89783)" font-size="16" font-family="OpenSauceOne" font-weight="bold"><tspan y="15" x="0">S</tspan></text>
<text fill="#e8e5d6" xml:space="preserve" transform="matrix(.42489854 .6180301 -.6180301 .42489854 69.891239 205.89783)" font-size="16" font-family="OpenSauceOne" font-weight="bold"><tspan y="15" x="11.140625"> </tspan></text>
<text fill="#e8e5d6" xml:space="preserve" transform="matrix(.50837466 .551412 -.551412 .50837466 74.01463 211.97174)" font-size="16" font-family="OpenSauceOne" font-weight="bold"><tspan y="15" x="0">T</tspan></text>
<text fill="#e8e5d6" xml:space="preserve" transform="matrix(.50837466 .551412 -.551412 .50837466 74.01463 211.97174)" font-size="16" font-family="OpenSauceOne" font-weight="bold"><tspan y="15" x="10.09375"> </tspan></text>
<text fill="#e8e5d6" xml:space="preserve" transform="matrix(.58362349 .47104518 -.47104518 .58362349 78.34584 216.85344)" font-size="16" font-family="OpenSauceOne" font-weight="bold"><tspan y="15" x="0">U</tspan></text>
<text fill="#e8e5d6" xml:space="preserve" transform="matrix(.58362349 .47104518 -.47104518 .58362349 78.34584 216.85344)" font-size="16" font-family="OpenSauceOne" font-weight="bold"><tspan y="15" x="11.796875"> </tspan></text>
<text fill="#e8e5d6" xml:space="preserve" transform="matrix(.65026828 .3736993 -.3736993 .65026828 84.31122 221.77567)" font-size="16" font-family="OpenSauceOne" font-weight="bold"><tspan y="15" x="0">D</tspan></text>
<text fill="#e8e5d6" xml:space="preserve" transform="matrix(.65026828 .3736993 -.3736993 .65026828 84.31122 221.77567)" font-size="16" font-family="OpenSauceOne" font-weight="bold"><tspan y="15" x="11.65625"> </tspan></text>
<text fill="#e8e5d6" xml:space="preserve" transform="matrix(.68686357 .301195 -.301195 .68686357 91.26077 225.6503)" font-size="16" font-family="OpenSauceOne" font-weight="bold"><tspan y="15" x="0">I</tspan></text>
<text fill="#e8e5d6" xml:space="preserve" transform="matrix(.68686357 .301195 -.301195 .68686357 91.26077 225.6503)" font-size="16" font-family="OpenSauceOne" font-weight="bold"><tspan y="15" x="4.484375"> </tspan></text>
<text fill="#e8e5d6" xml:space="preserve" transform="matrix(.7175959 .21807367 -.21807367 .7175959 93.481227 226.88727)" font-size="16" font-family="OpenSauceOne" font-weight="bold"><tspan y="15" x="0">O</tspan></text>
<text fill="#e8e5d6" xml:space="preserve" transform="matrix(.7175959 .21807367 -.21807367 .7175959 93.481227 226.88727)" font-size="16" font-family="OpenSauceOne" font-weight="bold"><tspan y="15" x="13.125"> </tspan></text>
<text fill="#e8e5d6" xml:space="preserve" transform="matrix(.74346718 .098775308 -.098775308 .74346718 101.78402 229.44551)" font-size="16" font-family="OpenSauceOne" font-weight="bold"><tspan y="15" x="0">S</tspan></text>
<text fill="#e8e5d6" xml:space="preserve" transform="matrix(.74346718 .098775308 -.098775308 .74346718 101.78402 229.44551)" font-size="16" font-family="OpenSauceOne" font-weight="bold"><tspan y="15" x="11.140625"> </tspan></text>
</g>
<g clip-path="url(#clip_3)">
<path transform="matrix(.54288449,0,0,.54288449,245.72025,187.59899)" d="M86.338 45.1C86.59519 47.455694 87.04884 49.772928 87.69897 52.0517 88.34909 54.330469 89.18639 56.53825 90.21088 58.67504 91.23537 60.811834 92.43242 62.847139 93.802028 64.78095 95.17163 66.71477 96.69425 68.51949 98.36987 70.195117 100.045497 71.870738 101.85022 73.39336 103.784038 74.76296 105.71785 76.13257 107.75315 77.32962 109.889949 78.3541 112.02673 79.37859 114.23452 80.2159 116.51329 80.86602 118.79206 81.51614 121.1093 81.9698 123.465 82.227 138.46144 83.7215 153.49478 84.40683 168.565 84.283 153.49481 84.15968 138.46149 84.84502 123.465007 86.339 121.10933 86.59624 118.792118 87.049938 116.51337 87.70008 114.23461 88.350238 112.02685 89.18756 109.890079 90.21207 107.7533 91.23657 105.71802 92.43363 103.78422 93.80324 101.85042 95.172847 100.04571 96.69546 98.37009 98.37108 96.694469 100.0467 95.17186 101.85141 93.80225 103.78521 92.43264 105.719 91.23558 107.75429 90.211078 109.89106 89.18657 112.02783 88.34924 114.235599 87.6991 116.51435 87.04894 118.7931 86.595249 121.11031 86.338008 123.465999 84.84401 138.46247 84.158679 153.4958 84.282009 168.566 84.40587 153.49576 83.720539 138.46244 82.226009 123.465999 81.96887 121.11029 81.51528 118.793048 80.86522 116.51425 80.21516 114.23546 79.377918 112.02766 78.353488 109.89084 77.329059 107.75402 76.132068 105.71869 74.762508 103.78483 73.39296 101.85098 71.87039 100.04623 70.1948 98.37055 68.51921 96.69488 66.71453 95.17221 64.780757 93.80256 62.846979 92.43291 60.811708 91.2358 58.674943 90.21126 56.538179 89.18671 54.330419 88.34934 52.051664 87.69916 49.77291 87.04897 47.45569 86.59525 45.1 86.338 30.103528 84.84395 15.070196 84.158618 0 84.282 15.070229 84.40591 30.103562 83.72057 45.1 82.226 47.455629 81.9688 49.772798 81.51515 52.051504 80.86504 54.330209 80.214939 56.537927 79.377658 58.674657 78.35319 60.81139 77.32873 62.846639 76.131717 64.780399 74.762149 66.71415 73.39257 68.51882 71.869998 70.194408 70.19442 71.86999 68.51884 73.39256 66.71417 74.76213 64.78042 76.13171 62.846654 77.32873 60.811407 78.35319 58.67467 79.377658 56.537939 80.214939 54.330217 80.86504 52.05151 81.51515 49.7728 81.9688 47.45563 82.226 45.1 83.72057 30.103554 84.40591 15.070223 84.282 0 84.15863 15.070232 84.84396 30.103566 86.338 45.1Z" fill="#e8e5d6"/>
<path transform="matrix(.54288449,0,0,.54288449,245.72025,187.59899)" d="M180.435 107.105C180.56517 108.29707 180.79479 109.46968 181.12381 110.622829 181.45284 111.77597 181.87659 112.893199 182.39505 113.974498 182.9135 115.055789 183.51926 116.08573 184.21236 117.064319 184.90544 118.0429 185.67595 118.95617 186.5239 119.804119 187.37181 120.65205 188.28507 121.422557 189.26366 122.11564 190.24224 122.80873 191.27217 123.414508 192.35349 123.93296 193.43477 124.451419 194.55197 124.875148 195.70513 125.20416 196.85828 125.53319 198.0309 125.7628 199.22299 125.893009 206.81169 126.648578 214.41904 126.99524 222.045 126.93301 214.41904 126.87076 206.81169 127.21742 199.22299 127.97301 198.0309 128.1032 196.85828 128.3328 195.70513 128.66182 194.55197 128.99083 193.43477 129.41457 192.35349 129.93303 191.27217 130.45148 190.24224 131.05725 189.26366 131.75035 188.28507 132.44344 187.37181 133.21396 186.5239 134.0619 185.67595 134.90984 184.90544 135.82309 184.21236 136.80167 183.51926 137.78026 182.91349 138.8102 182.39504 139.8915 181.87657 140.9728 181.45284 142.09001 181.12381 143.24317 180.79479 144.3963 180.56517 145.56891 180.435 146.761 179.67891 154.35002 179.33225 161.95769 179.395 169.584 179.45752 161.95766 179.11052 154.34999 178.354 146.761 178.22385 145.56891 177.99428 144.39627 177.66529 143.2431 177.33628 142.08994 176.91255 140.9727 176.39414 139.89139 175.87569 138.81008 175.26993 137.7801 174.57686 136.8015 173.88376 135.8229 173.11325 134.90964 172.2653 134.06169 171.41736 133.21375 170.50408 132.44322 169.52548 131.75014 168.54689 131.05706 167.51692 130.4513 166.43561 129.93286 165.35428 129.41442 164.23703 128.9907 163.08388 128.66172 161.93073 128.33272 160.7581 128.10315 159.56601 127.973 151.97731 127.21743 144.36998 126.870769 136.744 126.933 144.36997 126.99525 151.97731 126.64858 159.56601 125.893 160.7581 125.76285 161.93073 125.53327 163.08388 125.20428 164.23703 124.87528 165.35428 124.45157 166.43561 123.933139 167.51692 123.414699 168.54689 122.80894 169.52548 122.11585 170.50408 121.42276 171.41736 120.652248 172.2653 119.804309 173.11325 118.95636 173.88376 118.04308 174.57685 117.06448 175.26993 116.085887 175.87569 115.05592 176.39414 113.9746 176.91255 112.89328 177.33628 111.77604 177.66527 110.62288 177.99427 109.46971 178.22385 108.29708 178.354 107.104999 179.11214 99.51609 179.4608 91.908428 179.4 84.282 179.33562 91.908229 179.68062 99.5159 180.435 107.105Z" fill="#e8e5d6"/>
<path transform="matrix(.54288449,0,0,.54288449,245.72025,187.59899)" d="M148.375 22.939C148.53504 24.405215 148.93387 25.803307 149.5715 27.133278 150.20914 28.463252 151.04943 29.649704 152.09236 30.692635 153.13529 31.735564 154.32173 32.575845 155.6517 33.213479 156.98168 33.851114 158.37976 34.249956 159.846 34.41 164.47962 34.87172 169.1246 35.083387 173.78099 35.045 169.1246 35.007123 164.47962 35.21879 159.846 35.679998 158.37973 35.84015 156.9816 36.23909 155.65161 36.876825 154.32163 37.514558 153.13518 38.35493 152.09227 39.397947 151.04935 40.440958 150.20908 41.627485 149.57146 42.95752 148.93384 44.287565 148.53502 45.685724 148.375 47.151998 147.9133 51.785284 147.70163 56.42995 147.74 61.086 147.7781 56.429918 147.56612 51.78525 147.104 47.152 146.94399 45.685728 146.54517 44.28757 145.90755 42.95753 145.26993 41.627489 144.42966 40.44096 143.38674 39.39795 142.34381 38.35494 141.15737 37.514566 139.82738 36.87683 138.49739 36.239095 137.09926 35.840154 135.633 35.68 130.99938 35.218793 126.35437 35.007127 121.698 35.045003 126.3544 35.08339 130.9994 34.871725 135.633 34.410005 137.09886 34.249536 138.49655 33.850389 139.8261 33.21256 141.15564 32.574735 142.34168 31.734375 143.3842 30.691485 144.42673 29.648592 145.26667 28.462267 145.904 27.13251 146.54138 25.80275 146.94005 24.404913 147.1 22.939 147.5636 18.304158 147.77693 13.657824 147.74 9 147.70148 13.657742 147.91315 18.304074 148.375 22.939Z" fill="#e8e5d6"/>
</g>
<g clip-path="url(#clip_4)">
<path transform="matrix(-.54288449,0,0,.54288449,129.27295,95.143939)" d="M86.338 45.1C86.59519 47.455694 87.04884 49.772928 87.69897 52.0517 88.34909 54.330469 89.18639 56.53825 90.21088 58.67504 91.23537 60.811834 92.43242 62.847139 93.802028 64.78095 95.17163 66.71477 96.69425 68.51949 98.36987 70.195117 100.045497 71.870738 101.85022 73.39336 103.784038 74.76296 105.71785 76.13257 107.75315 77.32962 109.889949 78.3541 112.02673 79.37859 114.23452 80.2159 116.51329 80.86602 118.79206 81.51614 121.1093 81.9698 123.465 82.227 138.46144 83.7215 153.49478 84.40683 168.565 84.283 153.49481 84.15968 138.46149 84.84502 123.465007 86.339 121.10933 86.59624 118.792118 87.049938 116.51337 87.70008 114.23461 88.350238 112.02685 89.18756 109.890079 90.21207 107.7533 91.23657 105.71802 92.43363 103.78422 93.80324 101.85042 95.172847 100.04571 96.69546 98.37009 98.37108 96.694469 100.0467 95.17186 101.85141 93.80225 103.78521 92.43264 105.719 91.23558 107.75429 90.211078 109.89106 89.18657 112.02783 88.34924 114.235599 87.6991 116.51435 87.04894 118.7931 86.595249 121.11031 86.338008 123.465999 84.84401 138.46247 84.158679 153.4958 84.282009 168.566 84.40587 153.49576 83.720539 138.46244 82.226009 123.465999 81.96887 121.11029 81.51528 118.793048 80.86522 116.51425 80.21516 114.23546 79.377918 112.02766 78.353488 109.89084 77.329059 107.75402 76.132068 105.71869 74.762508 103.78483 73.39296 101.85098 71.87039 100.04623 70.1948 98.37055 68.51921 96.69488 66.71453 95.17221 64.780757 93.80256 62.846979 92.43291 60.811708 91.2358 58.674943 90.21126 56.538179 89.18671 54.330419 88.34934 52.051664 87.69916 49.77291 87.04897 47.45569 86.59525 45.1 86.338 30.103528 84.84395 15.070196 84.158618 0 84.282 15.070229 84.40591 30.103562 83.72057 45.1 82.226 47.455629 81.9688 49.772798 81.51515 52.051504 80.86504 54.330209 80.214939 56.537927 79.377658 58.674657 78.35319 60.81139 77.32873 62.846639 76.131717 64.780399 74.762149 66.71415 73.39257 68.51882 71.869998 70.194408 70.19442 71.86999 68.51884 73.39256 66.71417 74.76213 64.78042 76.13171 62.846654 77.32873 60.811407 78.35319 58.67467 79.377658 56.537939 80.214939 54.330217 80.86504 52.05151 81.51515 49.7728 81.9688 47.45563 82.226 45.1 83.72057 30.103554 84.40591 15.070223 84.282 0 84.15863 15.070232 84.84396 30.103566 86.338 45.1Z" fill="#e8e5d6"/>
<path transform="matrix(-.54288449,0,0,.54288449,129.27295,95.143939)" d="M180.435 107.105C180.56517 108.29707 180.79479 109.46968 181.12381 110.622829 181.45284 111.77597 181.87659 112.893199 182.39505 113.974498 182.9135 115.055789 183.51926 116.08573 184.21236 117.064319 184.90544 118.0429 185.67595 118.95617 186.5239 119.804119 187.37181 120.65205 188.28507 121.422557 189.26366 122.11564 190.24224 122.80873 191.27217 123.414508 192.35349 123.93296 193.43477 124.451419 194.55197 124.875148 195.70513 125.20416 196.85828 125.53319 198.0309 125.7628 199.22299 125.893009 206.81169 126.648578 214.41904 126.99524 222.045 126.93301 214.41904 126.87076 206.81169 127.21742 199.22299 127.97301 198.0309 128.1032 196.85828 128.3328 195.70513 128.66182 194.55197 128.99083 193.43477 129.41457 192.35349 129.93303 191.27217 130.45148 190.24224 131.05725 189.26366 131.75035 188.28507 132.44344 187.37181 133.21396 186.5239 134.0619 185.67595 134.90984 184.90544 135.82309 184.21236 136.80167 183.51926 137.78026 182.91349 138.8102 182.39504 139.8915 181.87657 140.9728 181.45284 142.09001 181.12381 143.24317 180.79479 144.3963 180.56517 145.56891 180.435 146.761 179.67891 154.35002 179.33225 161.95769 179.395 169.584 179.45752 161.95766 179.11052 154.34999 178.354 146.761 178.22385 145.56891 177.99428 144.39627 177.66529 143.2431 177.33628 142.08994 176.91255 140.9727 176.39414 139.89139 175.87569 138.81008 175.26993 137.7801 174.57686 136.8015 173.88376 135.8229 173.11325 134.90964 172.2653 134.06169 171.41736 133.21375 170.50408 132.44322 169.52548 131.75014 168.54689 131.05706 167.51692 130.4513 166.43561 129.93286 165.35428 129.41442 164.23703 128.9907 163.08388 128.66172 161.93073 128.33272 160.7581 128.10315 159.56601 127.973 151.97731 127.21743 144.36998 126.870769 136.744 126.933 144.36997 126.99525 151.97731 126.64858 159.56601 125.893 160.7581 125.76285 161.93073 125.53327 163.08388 125.20428 164.23703 124.87528 165.35428 124.45157 166.43561 123.933139 167.51692 123.414699 168.54689 122.80894 169.52548 122.11585 170.50408 121.42276 171.41736 120.652248 172.2653 119.804309 173.11325 118.95636 173.88376 118.04308 174.57685 117.06448 175.26993 116.085887 175.87569 115.05592 176.39414 113.9746 176.91255 112.89328 177.33628 111.77604 177.66527 110.62288 177.99427 109.46971 178.22385 108.29708 178.354 107.104999 179.11214 99.51609 179.4608 91.908428 179.4 84.282 179.33562 91.908229 179.68062 99.5159 180.435 107.105Z" fill="#e8e5d6"/>
<path transform="matrix(-.54288449,0,0,.54288449,129.27295,95.143939)" d="M148.375 22.939C148.53504 24.405215 148.93387 25.803307 149.5715 27.133278 150.20914 28.463252 151.04943 29.649704 152.09236 30.692635 153.13529 31.735564 154.32173 32.575845 155.6517 33.213479 156.98168 33.851114 158.37976 34.249956 159.846 34.41 164.47962 34.87172 169.1246 35.083387 173.78099 35.045 169.1246 35.007123 164.47962 35.21879 159.846 35.679998 158.37973 35.84015 156.9816 36.23909 155.65161 36.876825 154.32163 37.514558 153.13518 38.35493 152.09227 39.397947 151.04935 40.440958 150.20908 41.627485 149.57146 42.95752 148.93384 44.287565 148.53502 45.685724 148.375 47.151998 147.9133 51.785284 147.70163 56.42995 147.74 61.086 147.7781 56.429918 147.56612 51.78525 147.104 47.152 146.94399 45.685728 146.54517 44.28757 145.90755 42.95753 145.26993 41.627489 144.42966 40.44096 143.38674 39.39795 142.34381 38.35494 141.15737 37.514566 139.82738 36.87683 138.49739 36.239095 137.09926 35.840154 135.633 35.68 130.99938 35.218793 126.35437 35.007127 121.698 35.045003 126.3544 35.08339 130.9994 34.871725 135.633 34.410005 137.09886 34.249536 138.49655 33.850389 139.8261 33.21256 141.15564 32.574735 142.34168 31.734375 143.3842 30.691485 144.42673 29.648592 145.26667 28.462267 145.904 27.13251 146.54138 25.80275 146.94005 24.404913 147.1 22.939 147.5636 18.304158 147.77693 13.657824 147.74 9 147.70148 13.657742 147.91315 18.304074 148.375 22.939Z" fill="#e8e5d6"/>
</g>
<path transform="matrix(1,0,0,-1,0,383.03999)" d="M8.522955 195.5506H129.27977V287.98445H8.522955Z" fill-opacity="0"/>
<path transform="matrix(1,0,0,-1,0,383.03999)" d="M245.72023 103.095539H366.47706V195.52939H245.72023Z" fill-opacity="0"/>
</svg>
